<svg xmlns:dc="http://purl.org/dc/elements/1.1/" xmlns:cc="http://creativecommons.org/ns#" xmlns:rdf="http://www.w3.org/1999/02/22-rdf-syntax-ns#" xmlns:svg="http://www.w3.org/2000/svg" xmlns="http://www.w3.org/2000/svg" xmlns:xlink="http://www.w3.org/1999/xlink" xmlns:sodipodi="http://sodipodi.sourceforge.net/DTD/sodipodi-0.dtd" xmlns:inkscape="http://www.inkscape.org/namespaces/inkscape" version="1.1" preserveAspectRatio="xMidYMid meet" viewBox="0 0 300 300" width="100%" height="100%" id="svg3411" inkscape:version="0.91 r13725" sodipodi:docname="barrier.svg" fit="" focusable="false">
    <metadata id="metadata3430">
      <rdf:rdf>
        <cc:work rdf:about="">
          <dc:format>image/svg+xml</dc:format>
          <dc:type rdf:resource="http://purl.org/dc/dcmitype/StillImage"></dc:type>
        </cc:work>
      </rdf:rdf>
    </metadata>
    <sodipodi:namedview pagecolor="#ffffff" bordercolor="#666666" borderopacity="1" objecttolerance="10" gridtolerance="10" guidetolerance="10" inkscape:pageopacity="0" inkscape:pageshadow="2" inkscape:window-width="1680" inkscape:window-height="925" id="namedview3428" showgrid="false" inkscape:zoom="2.53" inkscape:cx="150" inkscape:cy="150" inkscape:window-x="3755" inkscape:window-y="67" inkscape:window-maximized="0" inkscape:current-layer="svg3411"></sodipodi:namedview>
    <defs id="defs3413">
      <path d="M279.82 3.08L280.75 3.17L281.67 3.3L282.57 3.47L283.47 3.67L284.35 3.91L285.22 4.18L286.07 4.48L286.91 4.81L287.73 5.18L288.53 5.58L289.31 6L290.08 6.46L290.83 6.94L291.55 7.45L292.26 7.99L292.94 8.56L293.6 9.14L294.24 9.76L294.86 10.4L295.44 11.06L296.01 11.74L296.55 12.45L297.06 13.17L297.54 13.92L298 14.69L298.42 15.47L298.82 16.27L299.19 17.09L299.52 17.93L299.82 18.78L300.09 19.65L300.33 20.53L300.53 21.43L300.7 22.33L300.83 23.25L300.92 24.18L300.98 25.13L301 26.08L301 164.54L300.98 165.49L300.92 166.43L300.83 167.36L300.7 168.28L300.53 169.19L300.33 170.09L300.09 170.97L299.82 171.84L299.52 172.69L299.19 173.52L298.82 174.34L298.42 175.15L298 175.93L297.54 176.7L297.06 177.44L296.55 178.17L296.01 178.88L295.44 179.56L294.86 180.22L294.24 180.86L293.6 181.47L292.94 182.06L292.26 182.63L291.55 183.17L290.83 183.68L290.08 184.16L289.31 184.62L288.53 185.04L287.73 185.44L286.91 185.8L286.07 186.14L285.22 186.44L284.35 186.71L283.47 186.95L282.57 187.15L281.67 187.32L280.75 187.45L279.82 187.54L278.87 187.6L277.92 187.62L254.85 187.62L254.85 245.31L254.84 245.79L254.81 246.26L254.76 246.72L254.7 247.18L254.61 247.64L254.51 248.08L254.39 248.52L254.26 248.96L254.11 249.38L253.94 249.8L253.76 250.21L253.56 250.61L253.35 251.01L253.12 251.39L252.88 251.76L252.62 252.13L252.35 252.48L252.07 252.82L251.77 253.15L251.47 253.47L251.15 253.78L250.82 254.07L250.47 254.35L250.12 254.62L249.76 254.88L249.39 255.12L249 255.35L248.61 255.56L248.21 255.76L247.8 255.94L247.38 256.11L246.95 256.26L246.52 256.4L246.08 256.51L245.63 256.62L245.18 256.7L244.72 256.76L244.25 256.81L243.78 256.84L243.31 256.85L242.83 256.84L242.36 256.81L241.9 256.76L241.44 256.7L240.98 256.62L240.53 256.51L240.09 256.4L239.66 256.26L239.23 256.11L238.82 255.94L238.41 255.76L238.01 255.56L237.61 255.35L237.23 255.12L236.86 254.88L236.49 254.62L236.14 254.35L235.8 254.07L235.47 253.78L235.15 253.47L234.84 253.15L234.55 252.82L234.26 252.48L234 252.13L233.74 251.76L233.5 251.39L233.27 251.01L233.06 250.61L232.86 250.21L232.68 249.8L232.51 249.38L232.36 248.96L232.22 248.52L232.1 248.08L232 247.64L231.92 247.18L231.85 246.72L231.81 246.26L231.78 245.79L231.77 245.31L231.77 233.77L70.23 233.77L70.23 245.31L70.22 245.79L70.19 246.26L70.15 246.72L70.08 247.18L70 247.64L69.9 248.08L69.78 248.52L69.64 248.96L69.49 249.38L69.32 249.8L69.14 250.21L68.94 250.61L68.73 251.01L68.5 251.39L68.26 251.76L68 252.13L67.74 252.48L67.45 252.82L67.16 253.15L66.85 253.47L66.53 253.78L66.2 254.07L65.86 254.35L65.51 254.62L65.14 254.88L64.77 255.12L64.39 255.35L63.99 255.56L63.59 255.76L63.18 255.94L62.77 256.11L62.34 256.26L61.91 256.4L61.47 256.51L61.02 256.62L60.56 256.7L60.1 256.76L59.64 256.81L59.17 256.84L58.69 256.85L58.22 256.84L57.75 256.81L57.28 256.76L56.82 256.7L56.37 256.62L55.92 256.51L55.48 256.4L55.05 256.26L54.62 256.11L54.2 255.94L53.79 255.76L53.39 255.56L53 255.35L52.61 255.12L52.24 254.88L51.88 254.62L51.53 254.35L51.18 254.07L50.85 253.78L50.53 253.47L50.23 253.15L49.93 252.82L49.65 252.48L49.38 252.13L49.12 251.76L48.88 251.39L48.65 251.01L48.44 250.61L48.24 250.21L48.06 249.8L47.89 249.38L47.74 248.96L47.61 248.52L47.49 248.08L47.39 247.64L47.3 247.18L47.24 246.72L47.19 246.26L47.16 245.79L47.15 245.31L47.15 187.62L24.08 187.62L23.13 187.6L22.18 187.54L21.25 187.45L20.33 187.32L19.43 187.15L18.53 186.95L17.65 186.71L16.78 186.44L15.93 186.14L15.09 185.8L14.27 185.44L13.47 185.04L12.69 184.62L11.92 184.16L11.17 183.68L10.45 183.17L9.74 182.63L9.06 182.06L8.4 181.47L7.76 180.86L7.14 180.22L6.56 179.56L5.99 178.88L5.45 178.17L4.94 177.44L4.46 176.7L4 175.93L3.58 175.15L3.18 174.34L2.81 173.52L2.48 172.69L2.18 171.84L1.91 170.97L1.67 170.09L1.47 169.19L1.3 168.28L1.17 167.36L1.08 166.43L1.02 165.49L1 164.54L1 26.08L1.02 25.13L1.08 24.18L1.17 23.25L1.3 22.33L1.47 21.43L1.67 20.53L1.91 19.65L2.18 18.78L2.48 17.93L2.81 17.09L3.18 16.27L3.58 15.47L4 14.69L4.46 13.92L4.94 13.17L5.45 12.45L5.99 11.74L6.56 11.06L7.14 10.4L7.76 9.76L8.4 9.14L9.06 8.56L9.74 7.99L10.45 7.45L11.17 6.94L11.92 6.46L12.69 6L13.47 5.58L14.27 5.18L15.09 4.81L15.93 4.48L16.78 4.18L17.65 3.91L18.53 3.67L19.43 3.47L20.33 3.3L21.25 3.17L22.18 3.08L23.13 3.02L24.08 3L277.92 3L278.87 3.02L279.82 3.08ZM70.23 210.7L231.77 210.7L231.77 187.62L70.23 187.62L70.23 210.7ZM197.15 164.54L243.31 164.54L104.85 26.08L58.69 26.08L197.15 164.54ZM70.23 164.54L24.08 118.39L24.08 164.54L70.23 164.54ZM277.92 164.54L277.92 106.85L197.15 26.08L139.46 26.08L277.92 164.54ZM104.85 164.54L162.54 164.54L24.08 26.08L24.08 83.77L104.85 164.54ZM277.92 72.23L277.92 26.08L231.77 26.08L277.92 72.23Z" id="a2yqLy4L9"></path>
    </defs>
    <g id="g3416" style="fill:none;fill-opacity:1;stroke:#ffffff;stroke-opacity:1;stroke-width:5.12794095;stroke-miterlimit:4;stroke-dasharray:none" transform="matrix(0.97505023,0,0,0.97505023,2.0124749,0.06237443)">
      <g id="g3418" style="fill:none;fill-opacity:1;stroke:#ffffff;stroke-opacity:1;stroke-width:5.12794095;stroke-miterlimit:4;stroke-dasharray:none">
        <g id="g3420" style="fill:none;fill-opacity:1;stroke:#ffffff;stroke-opacity:1;stroke-width:5.12794095;stroke-miterlimit:4;stroke-dasharray:none">
          <use xlink:href="#a2yqLy4L9" id="use3422" style="opacity:1;fill:none;fill-opacity:1;stroke:#ffffff;stroke-opacity:1;stroke-width:5.12794095;stroke-miterlimit:4;stroke-dasharray:none" x="0" y="0" width="100%" height="100%"></use>
          <g id="g3424" style="fill:none;fill-opacity:1;stroke:#ffffff;stroke-opacity:1;stroke-width:5.12794095;stroke-miterlimit:4;stroke-dasharray:none">
            <use xlink:href="#a2yqLy4L9" id="use3426" style="opacity:1;fill:none;fill-opacity:1;stroke:#ffffff;stroke-width:5.12794095;stroke-opacity:1;stroke-miterlimit:4;stroke-dasharray:none" x="0" y="0" width="100%" height="100%"></use>
          </g>
        </g>
      </g>
    </g>
  </svg>