<svg version="1.1" id="Layer_2" xmlns="http://www.w3.org/2000/svg" xmlns:xlink="http://www.w3.org/1999/xlink" x="0px" y="0px" viewBox="0 0 180 120" style="enable-background:new 0 0 180 120;" xml:space="preserve" fit="" height="100%" width="100%" preserveAspectRatio="xMidYMid meet" focusable="false">
    <style type="text/css">
        .st0{fill:none;stroke:#FFFFFF;stroke-width:4.5665;stroke-miterlimit:10;}
        .st1{fill:none;stroke:#FFFFFF;stroke-width:4.195;stroke-miterlimit:10;}
        .st2{fill:none;stroke:#FFFFFF;stroke-width:4.1842;stroke-miterlimit:10;}
        .st3{fill:none;stroke:#FFFFFF;stroke-width:3.9069;stroke-miterlimit:10;}
        .st4{fill:none;stroke:#FFFFFF;stroke-width:3.8029;stroke-miterlimit:10;}
        .st5{fill:none;stroke:#FFFFFF;stroke-width:3.8029;stroke-linecap:round;stroke-miterlimit:10;}
        .st6{fill:none;stroke:#FFFFFF;stroke-width:4.3617;stroke-miterlimit:10;}
        .st7{fill:none;stroke:#FFFFFF;stroke-width:4.3617;stroke-linecap:round;stroke-miterlimit:10;}
        .st8{fill:none;stroke:#FFFFFF;stroke-width:4.1527;stroke-miterlimit:10;}
        .st9{fill:none;stroke:#FFFFFF;stroke-width:4.0172;stroke-miterlimit:10;}
        .st10{fill:none;stroke:#FFFFFF;stroke-width:5.0055;stroke-miterlimit:10;}
        .st11{fill:none;stroke:#FFFFFF;stroke-width:3.0808;stroke-miterlimit:10;}
    </style>
    <g>
        <path class="st6" d="M20.3,88.8c12.5,0,16.4,10.7,36.3,10.7"></path>
        <path class="st6" d="M90.2,88.8c-12.5,0-16.4,10.7-36.3,10.7"></path>
        <path class="st6" d="M20.3,88.8c12.5,0,16.4,10.7,36.3,10.7"></path>
        <path class="st6" d="M90.2,88.8c-12.5,0-16.4,10.7-36.3,10.7"></path>
        <path class="st6" d="M89.8,88.8c12.5,0,16.4,10.7,36.3,10.7"></path>
        <path class="st6" d="M159.7,88.8c-12.5,0-16.4,10.7-36.3,10.7"></path>
        <path class="st6" d="M89.8,88.8c12.5,0,16.4,10.7,36.3,10.7"></path>
        <path class="st6" d="M159.7,88.8c-12.5,0-16.4,10.7-36.3,10.7"></path>
        <path class="st6" d="M20.3,103.8c12.5,0,16.4,10.7,36.3,10.7"></path>
        <path class="st6" d="M90.2,103.8c-12.5,0-16.4,10.7-36.3,10.7"></path>
        <path class="st6" d="M20.3,103.8c12.5,0,16.4,10.7,36.3,10.7"></path>
        <path class="st6" d="M90.2,103.8c-12.5,0-16.4,10.7-36.3,10.7"></path>
        <path class="st6" d="M89.8,103.8c12.5,0,16.4,10.7,36.3,10.7"></path>
        <path class="st6" d="M159.7,103.8c-12.5,0-16.4,10.7-36.3,10.7"></path>
        <path class="st6" d="M89.8,103.8c12.5,0,16.4,10.7,36.3,10.7"></path>
        <path class="st6" d="M159.7,103.8c-12.5,0-16.4,10.7-36.3,10.7"></path>
        <path class="st6" d="M110.9,26c11.3,11.3,11.3,29.6,0,40.9s-29.6,11.3-40.9,0S58.7,37.3,70,26"></path>
        <path class="st7" d="M77.6,59.3c-0.4-0.4-0.7-0.8-1.1-1.1c-6-7.1-5.7-17.8,1.1-24.5"></path>
        <polyline class="st6" points="69.6,26.4 90.4,5.5 111.2,26.3 	"></polyline>
    </g>
    </svg>